<svg id="Layer_1" enable-background="new 0 0 512 512" height="512" viewBox="0 0 512 512" width="512" xmlns="http://www.w3.org/2000/svg"><g><path d="m327.765 225.6c-16.884-16.885-46.607-13.444-62.822-9.889-22.999 5.041-44.445 15.333-55.972 26.86-21.033 21.032-20.023 55.471-6.032 80.543-17.884 21.123-26.939 41.55-26.939 60.878 0 8.836 7.163 16 16 16s16-7.164 16-16c0-11.904 7.173-24.924 16.792-36.944 12.682 8.561 28.563 13.566 44.116 13.564 15.474-.001 30.609-4.942 41.886-16.218 11.526-11.527 21.818-32.974 26.859-55.971 3.555-16.216 6.996-45.939-9.888-62.823zm-21.37 55.971c-4.048 18.47-12.234 34.202-18.229 40.196-9.438 9.437-27.149 8.496-40.575 1.681 8.407-7.453 16.229-13.35 21.175-16.66 7.345-4.904 9.327-14.832 4.428-22.182-4.901-7.352-14.836-9.338-22.188-4.438-.571.38-11.062 7.418-23.954 18.688-3.976-12.113-3.34-25.775 4.544-33.659 5.994-5.994 21.726-14.18 40.196-18.229 7.254-1.59 13.365-2.207 18.318-2.207 8.229 0 13.262 1.702 15.025 3.465 2.827 2.826 5.493 14.037 1.26 33.345z"/><path d="m507.516 244.883-225.858-234.142c-.066-.069-.134-.137-.202-.205-14.037-14.037-36.875-14.037-50.912 0-.068.068-.136.136-.202.205l-225.858 234.142c-6.135 6.36-5.952 16.489.407 22.624 6.361 6.135 16.489 5.952 22.624-.408l12.485-12.942v211.834c0 25.364 20.636 46 46 46h340c25.364 0 46-20.636 46-46v-211.834l12.484 12.942c3.14 3.255 7.325 4.893 11.518 4.892 3.998 0 8.002-1.49 11.106-4.484 6.36-6.135 6.542-16.263.408-22.624zm-67.516 221.109c0 7.72-6.28 14-14 14h-340c-7.72 0-14-6.28-14-14v-245.009l181.234-187.882c1.543-1.477 3.988-1.477 5.531 0l181.235 187.882z"/></g></svg>